<svg width="379" height="236" viewBox="0 0 379 236" fill="none" xmlns="http://www.w3.org/2000/svg">
<path d="M215.234 0V55.5938H248.23V235.615H308.33V0H215.234Z" fill="black"/>
<path d="M90.4613 0.0078125H0V235.623H90.8079C130.597 235.623 161.513 224.879 182.656 203.736C204.283 182.455 215.235 153.688 215.235 118.266C215.235 83.052 204.144 54.2846 182.378 32.865C160.889 11.0988 129.973 0.0078125 90.4613 0.0078125ZM60.1689 55.6016H87.2726C112.297 55.6016 129.904 61.0778 139.678 72.0302C149.729 82.9133 154.789 98.5101 154.789 118.266C154.789 160.343 133.439 179.96 87.6192 179.96H60.1689V55.6016Z" fill="black"/>
<path d="M379 106L99 106V131L379 131V106Z" fill="url(#paint0_linear)"/>
<defs>
<linearGradient id="paint0_linear" x1="379" y1="117.364" x2="314.819" y2="235.227" gradientUnits="userSpaceOnUse">
<stop stop-color="#0B90FF"/>
<stop offset="1" stop-color="#11DCFF"/>
</linearGradient>
</defs>
</svg>
